<svg viewBox="0 0 98 96" xmlns="http://www.w3.org/2000/svg" fill="currentColor"><path fill-rule="evenodd" clip-rule="evenodd" d="M48.854 0C21.839 0 0 22.002 0 49.017c0 21.655 14.006 40.032 33.455 46.513.612.11.83-.264.83-.586 0-.29-.01-.83-.01-1.927-13.622 2.98-16.487-5.85-16.487-5.85-.548-1.398-1.346-1.766-1.346-1.766-1.098-.752.082-.736.082-.736 1.21.083 1.844 1.242 1.844 1.242 1.082 1.85 2.83 1.314 3.52.998.108-.776.423-1.314.772-1.618-11.032-1.25-22.627-5.52-22.627-24.725 0-5.47 1.94-9.948 5.13-13.458-.513-1.252-2.227-6.37.487-13.26 0 0 4.16-.134 13.62 5.066A47.14 47.14 0 0148.853 33.2c4.398 0 8.84.608 12.924 1.816 9.448-5.2 13.602-5.066 13.602-5.066 2.727 6.89-.99 12.008-.498 13.26 3.193 3.51 5.12 7.988 5.12 13.458 0 19.253-11.617 23.456-22.694 24.683.434.376.822 1.122.822 2.262 0 1.63-.016 3.302-.016 3.678 0 .326.212.704.838.586C84.91 89.041 97.703 70.68 97.703 49.017 97.703 22.002 75.863 0 48.854 0z"/></svg>
